<mxfile host="Electron" modified="2024-02-12T20:21:01.089Z" agent="Mozilla/5.0 (Windows NT 10.0; Win64; x64) AppleWebKit/537.36 (KHTML, like Gecko) draw.io/23.0.2 Chrome/120.0.6099.109 Electron/28.1.0 Safari/537.36" etag="tMVkFx516AXS4nwrLJOo" version="23.0.2" type="device">
  <diagram name="Page-1" id="52a04d89-c75d-2922-d76d-85b35f80e030">
    <mxGraphModel dx="1433" dy="823" grid="1" gridSize="10" guides="1" tooltips="1" connect="1" arrows="1" fold="1" page="1" pageScale="1" pageWidth="1100" pageHeight="850" background="none" math="0" shadow="0">
      <root>
        <mxCell id="0" />
        <mxCell id="1" parent="0" />
        <mxCell id="17472293e6e8944d-4" value="min. &amp;amp; max.&lt;br style=&quot;&quot;&gt;&lt;span style=&quot;&quot;&gt;feed-in&lt;br&gt;values [Wh]&lt;/span&gt;" style="html=1;rounded=0;shadow=0;comic=0;labelBackgroundColor=none;strokeWidth=2;fontFamily=Verdana;fontSize=12;align=center;shape=mxgraph.ios7ui.horLines;fillColor=none;" parent="1" vertex="1">
          <mxGeometry x="600" y="240" width="120" height="50" as="geometry" />
        </mxCell>
        <mxCell id="1fdf3b25b50cf41e-27" style="edgeStyle=none;html=1;labelBackgroundColor=none;startFill=0;startSize=8;endFill=1;endSize=8;fontFamily=Verdana;fontSize=12;entryX=0;entryY=0.5;entryDx=0;entryDy=0;exitX=1;exitY=0.5;exitDx=0;exitDy=0;" parent="1" source="oQiGW552PC2_yi8YqRPW-4" target="oQiGW552PC2_yi8YqRPW-57" edge="1">
          <mxGeometry relative="1" as="geometry">
            <mxPoint x="440" y="190" as="targetPoint" />
          </mxGeometry>
        </mxCell>
        <mxCell id="17472293e6e8944d-30" value="Consumption Power" style="whiteSpace=wrap;html=1;rounded=0;shadow=0;comic=0;labelBackgroundColor=none;strokeWidth=1;fontFamily=Verdana;fontSize=12;align=center;fillColor=none;" parent="1" vertex="1">
          <mxGeometry x="40" y="160" width="120" height="56" as="geometry" />
        </mxCell>
        <mxCell id="1fdf3b25b50cf41e-6" value="min. &amp;amp; max.&lt;br style=&quot;&quot;&gt;&lt;span style=&quot;&quot;&gt;consumption&lt;br&gt;values [Wh]&lt;/span&gt;" style="html=1;rounded=0;shadow=0;comic=0;labelBackgroundColor=none;strokeWidth=2;fontFamily=Verdana;fontSize=12;align=center;shape=mxgraph.ios7ui.horLines;fillColor=none;" parent="1" vertex="1">
          <mxGeometry x="440" y="240" width="120" height="50" as="geometry" />
        </mxCell>
        <mxCell id="oQiGW552PC2_yi8YqRPW-5" value="" style="edgeStyle=none;html=1;labelBackgroundColor=none;startFill=0;startSize=8;endFill=1;endSize=8;fontFamily=Verdana;fontSize=12;" parent="1" source="17472293e6e8944d-30" target="oQiGW552PC2_yi8YqRPW-4" edge="1">
          <mxGeometry relative="1" as="geometry">
            <mxPoint x="140" y="199" as="sourcePoint" />
            <mxPoint x="390" y="199.81578947368416" as="targetPoint" />
          </mxGeometry>
        </mxCell>
        <mxCell id="oQiGW552PC2_yi8YqRPW-4" value="filter" style="shape=process;whiteSpace=wrap;html=1;backgroundOutline=1;fillColor=none;" parent="1" vertex="1">
          <mxGeometry x="200" y="160" width="120" height="56" as="geometry" />
        </mxCell>
        <mxCell id="oQiGW552PC2_yi8YqRPW-7" value="limit&lt;br&gt;consumption&lt;br&gt;power" style="shape=process;whiteSpace=wrap;html=1;backgroundOutline=1;fillColor=none;" parent="1" vertex="1">
          <mxGeometry x="440" y="160" width="120" height="56" as="geometry" />
        </mxCell>
        <mxCell id="oQiGW552PC2_yi8YqRPW-28" value="" style="edgeStyle=orthogonalEdgeStyle;rounded=0;orthogonalLoop=1;jettySize=auto;html=1;" parent="1" source="oQiGW552PC2_yi8YqRPW-8" target="oQiGW552PC2_yi8YqRPW-24" edge="1">
          <mxGeometry relative="1" as="geometry" />
        </mxCell>
        <mxCell id="oQiGW552PC2_yi8YqRPW-8" value="linearisation" style="shape=process;whiteSpace=wrap;html=1;backgroundOutline=1;fillColor=none;" parent="1" vertex="1">
          <mxGeometry x="600" y="160" width="120" height="56" as="geometry" />
        </mxCell>
        <mxCell id="oQiGW552PC2_yi8YqRPW-12" value="" style="endArrow=none;html=1;rounded=0;entryX=0.5;entryY=1;entryDx=0;entryDy=0;" parent="1" target="oQiGW552PC2_yi8YqRPW-7" edge="1">
          <mxGeometry width="50" height="50" relative="1" as="geometry">
            <mxPoint x="500" y="240" as="sourcePoint" />
            <mxPoint x="550" y="230" as="targetPoint" />
          </mxGeometry>
        </mxCell>
        <mxCell id="oQiGW552PC2_yi8YqRPW-14" value="" style="endArrow=classic;html=1;rounded=0;exitX=1;exitY=0.5;exitDx=0;exitDy=0;entryX=0;entryY=0.5;entryDx=0;entryDy=0;" parent="1" source="oQiGW552PC2_yi8YqRPW-7" target="oQiGW552PC2_yi8YqRPW-8" edge="1">
          <mxGeometry width="50" height="50" relative="1" as="geometry">
            <mxPoint x="580" y="360" as="sourcePoint" />
            <mxPoint x="630" y="310" as="targetPoint" />
          </mxGeometry>
        </mxCell>
        <mxCell id="oQiGW552PC2_yi8YqRPW-15" value="" style="endArrow=none;html=1;rounded=0;entryX=0.5;entryY=1;entryDx=0;entryDy=0;exitX=0.5;exitY=0;exitDx=0;exitDy=0;" parent="1" target="oQiGW552PC2_yi8YqRPW-8" edge="1">
          <mxGeometry width="50" height="50" relative="1" as="geometry">
            <mxPoint x="660" y="240" as="sourcePoint" />
            <mxPoint x="510" y="226" as="targetPoint" />
          </mxGeometry>
        </mxCell>
        <mxCell id="oQiGW552PC2_yi8YqRPW-16" value="" style="endArrow=classic;html=1;rounded=0;exitX=1;exitY=0.5;exitDx=0;exitDy=0;entryX=0;entryY=0.5;entryDx=0;entryDy=0;" parent="1" edge="1">
          <mxGeometry width="50" height="50" relative="1" as="geometry">
            <mxPoint x="720" y="187.68" as="sourcePoint" />
            <mxPoint x="760" y="187.68" as="targetPoint" />
          </mxGeometry>
        </mxCell>
        <mxCell id="oQiGW552PC2_yi8YqRPW-24" value="scaling" style="shape=process;whiteSpace=wrap;html=1;backgroundOutline=1;fillColor=none;" parent="1" vertex="1">
          <mxGeometry x="760" y="160" width="120" height="56" as="geometry" />
        </mxCell>
        <mxCell id="oQiGW552PC2_yi8YqRPW-25" value="min. &amp;amp; max.&lt;br style=&quot;&quot;&gt;&lt;span style=&quot;&quot;&gt;current&lt;br&gt;values [A]&lt;/span&gt;" style="html=1;rounded=0;shadow=0;comic=0;labelBackgroundColor=none;strokeWidth=2;fontFamily=Verdana;fontSize=12;align=center;shape=mxgraph.ios7ui.horLines;fillColor=none;" parent="1" vertex="1">
          <mxGeometry x="760" y="240" width="120" height="50" as="geometry" />
        </mxCell>
        <mxCell id="oQiGW552PC2_yi8YqRPW-26" value="" style="endArrow=none;html=1;rounded=0;entryX=0.5;entryY=1;entryDx=0;entryDy=0;exitX=0.5;exitY=0;exitDx=0;exitDy=0;" parent="1" edge="1">
          <mxGeometry width="50" height="50" relative="1" as="geometry">
            <mxPoint x="819.8199999999999" y="240" as="sourcePoint" />
            <mxPoint x="819.8199999999999" y="216" as="targetPoint" />
          </mxGeometry>
        </mxCell>
        <mxCell id="oQiGW552PC2_yi8YqRPW-27" value="Feed-in current" style="whiteSpace=wrap;html=1;rounded=0;shadow=0;comic=0;labelBackgroundColor=none;strokeWidth=1;fontFamily=Verdana;fontSize=12;align=center;fillColor=none;" parent="1" vertex="1">
          <mxGeometry x="920" y="160" width="120" height="56" as="geometry" />
        </mxCell>
        <mxCell id="oQiGW552PC2_yi8YqRPW-29" value="" style="endArrow=classic;html=1;rounded=0;exitX=1;exitY=0.5;exitDx=0;exitDy=0;entryX=0;entryY=0.5;entryDx=0;entryDy=0;" parent="1" edge="1">
          <mxGeometry width="50" height="50" relative="1" as="geometry">
            <mxPoint x="880" y="187.75" as="sourcePoint" />
            <mxPoint x="920" y="187.75" as="targetPoint" />
          </mxGeometry>
        </mxCell>
        <mxCell id="oQiGW552PC2_yi8YqRPW-30" value="Actor" style="shape=umlActor;verticalLabelPosition=bottom;verticalAlign=top;html=1;outlineConnect=0;" parent="1" vertex="1">
          <mxGeometry x="480" y="425" width="30" height="60" as="geometry" />
        </mxCell>
        <mxCell id="oQiGW552PC2_yi8YqRPW-32" value="" style="endArrow=none;dashed=1;html=1;dashPattern=1 3;strokeWidth=2;rounded=0;entryX=0.669;entryY=1.06;entryDx=0;entryDy=0;entryPerimeter=0;exitX=0.5;exitY=0;exitDx=0;exitDy=0;exitPerimeter=0;" parent="1" source="oQiGW552PC2_yi8YqRPW-30" target="1fdf3b25b50cf41e-6" edge="1">
          <mxGeometry width="50" height="50" relative="1" as="geometry">
            <mxPoint x="640" y="380" as="sourcePoint" />
            <mxPoint x="700" y="250" as="targetPoint" />
          </mxGeometry>
        </mxCell>
        <mxCell id="oQiGW552PC2_yi8YqRPW-36" value="-600 Wh .. +600 Wh" style="edgeLabel;html=1;align=center;verticalAlign=middle;resizable=0;points=[];rotation=0;" parent="oQiGW552PC2_yi8YqRPW-32" vertex="1" connectable="0">
          <mxGeometry x="0.2389" y="3" relative="1" as="geometry">
            <mxPoint x="-48" y="-23" as="offset" />
          </mxGeometry>
        </mxCell>
        <mxCell id="oQiGW552PC2_yi8YqRPW-33" value="" style="endArrow=none;dashed=1;html=1;dashPattern=1 3;strokeWidth=2;rounded=0;exitX=0.331;exitY=1.047;exitDx=0;exitDy=0;exitPerimeter=0;entryX=0.75;entryY=0.1;entryDx=0;entryDy=0;entryPerimeter=0;" parent="1" source="oQiGW552PC2_yi8YqRPW-25" target="oQiGW552PC2_yi8YqRPW-30" edge="1">
          <mxGeometry width="50" height="50" relative="1" as="geometry">
            <mxPoint x="795" y="447" as="sourcePoint" />
            <mxPoint x="680" y="380" as="targetPoint" />
          </mxGeometry>
        </mxCell>
        <mxCell id="oQiGW552PC2_yi8YqRPW-38" value="0,00 A .. 13,00 A" style="edgeLabel;html=1;align=center;verticalAlign=middle;resizable=0;points=[];" parent="oQiGW552PC2_yi8YqRPW-33" vertex="1" connectable="0">
          <mxGeometry x="-0.0497" y="-1" relative="1" as="geometry">
            <mxPoint x="35" y="13" as="offset" />
          </mxGeometry>
        </mxCell>
        <mxCell id="oQiGW552PC2_yi8YqRPW-34" value="" style="endArrow=none;dashed=1;html=1;dashPattern=1 3;strokeWidth=2;rounded=0;exitX=0.331;exitY=1.047;exitDx=0;exitDy=0;exitPerimeter=0;entryX=0.75;entryY=0.1;entryDx=0;entryDy=0;entryPerimeter=0;" parent="1" target="oQiGW552PC2_yi8YqRPW-30" edge="1">
          <mxGeometry width="50" height="50" relative="1" as="geometry">
            <mxPoint x="660" y="290" as="sourcePoint" />
            <mxPoint x="640" y="378" as="targetPoint" />
          </mxGeometry>
        </mxCell>
        <mxCell id="oQiGW552PC2_yi8YqRPW-41" value="0 Wh .. 400 Wh" style="edgeLabel;html=1;align=center;verticalAlign=middle;resizable=0;points=[];" parent="1" vertex="1" connectable="0">
          <mxGeometry x="670.003360985126" y="320.0033428457764" as="geometry" />
        </mxCell>
        <mxCell id="oQiGW552PC2_yi8YqRPW-42" value="User configures value pairs for regulating the maxmimal feed-in current." style="text;html=1;strokeColor=none;fillColor=none;align=left;verticalAlign=middle;whiteSpace=wrap;rounded=0;fontStyle=2" parent="1" vertex="1">
          <mxGeometry x="545" y="432.5" width="175" height="45" as="geometry" />
        </mxCell>
        <mxCell id="oQiGW552PC2_yi8YqRPW-43" value="moving average &lt;br&gt;filter oder" style="html=1;rounded=0;shadow=0;comic=0;labelBackgroundColor=none;strokeWidth=2;fontFamily=Verdana;fontSize=12;align=center;shape=mxgraph.ios7ui.horLines;fillColor=none;" parent="1" vertex="1">
          <mxGeometry x="200" y="240" width="120" height="50" as="geometry" />
        </mxCell>
        <mxCell id="oQiGW552PC2_yi8YqRPW-45" value="" style="endArrow=none;dashed=1;html=1;dashPattern=1 3;strokeWidth=2;rounded=0;entryX=0.485;entryY=0.997;entryDx=0;entryDy=0;entryPerimeter=0;exitX=0.25;exitY=0.1;exitDx=0;exitDy=0;exitPerimeter=0;" parent="1" source="oQiGW552PC2_yi8YqRPW-30" target="oQiGW552PC2_yi8YqRPW-43" edge="1">
          <mxGeometry width="50" height="50" relative="1" as="geometry">
            <mxPoint x="555" y="400" as="sourcePoint" />
            <mxPoint x="490" y="303" as="targetPoint" />
          </mxGeometry>
        </mxCell>
        <mxCell id="oQiGW552PC2_yi8YqRPW-46" value="1..20" style="edgeLabel;html=1;align=center;verticalAlign=middle;resizable=0;points=[];rotation=0;" parent="oQiGW552PC2_yi8YqRPW-45" vertex="1" connectable="0">
          <mxGeometry x="0.2389" y="3" relative="1" as="geometry">
            <mxPoint x="12" y="-13" as="offset" />
          </mxGeometry>
        </mxCell>
        <mxCell id="oQiGW552PC2_yi8YqRPW-48" value="" style="endArrow=none;html=1;rounded=0;entryX=0.5;entryY=1;entryDx=0;entryDy=0;" parent="1" edge="1">
          <mxGeometry width="50" height="50" relative="1" as="geometry">
            <mxPoint x="259.86" y="240" as="sourcePoint" />
            <mxPoint x="259.86" y="216" as="targetPoint" />
          </mxGeometry>
        </mxCell>
        <mxCell id="oQiGW552PC2_yi8YqRPW-52" value="poll interval&lt;br&gt;[sec]" style="html=1;rounded=0;shadow=0;comic=0;labelBackgroundColor=none;strokeWidth=2;fontFamily=Verdana;fontSize=12;align=center;shape=mxgraph.ios7ui.horLines;fillColor=none;" parent="1" vertex="1">
          <mxGeometry x="40" y="240" width="120" height="50" as="geometry" />
        </mxCell>
        <mxCell id="oQiGW552PC2_yi8YqRPW-53" value="" style="endArrow=none;dashed=1;html=1;dashPattern=1 3;strokeWidth=2;rounded=0;entryX=0.485;entryY=0.997;entryDx=0;entryDy=0;entryPerimeter=0;exitX=0.25;exitY=0.1;exitDx=0;exitDy=0;exitPerimeter=0;" parent="1" source="oQiGW552PC2_yi8YqRPW-30" edge="1">
          <mxGeometry width="50" height="50" relative="1" as="geometry">
            <mxPoint x="380" y="396" as="sourcePoint" />
            <mxPoint x="140" y="290" as="targetPoint" />
          </mxGeometry>
        </mxCell>
        <mxCell id="oQiGW552PC2_yi8YqRPW-54" value="1 sec ..30 sec" style="edgeLabel;html=1;align=center;verticalAlign=middle;resizable=0;points=[];rotation=0;" parent="oQiGW552PC2_yi8YqRPW-53" vertex="1" connectable="0">
          <mxGeometry x="0.2389" y="3" relative="1" as="geometry">
            <mxPoint x="-10" y="27" as="offset" />
          </mxGeometry>
        </mxCell>
        <mxCell id="oQiGW552PC2_yi8YqRPW-55" value="" style="endArrow=none;html=1;rounded=0;entryX=0.5;entryY=1;entryDx=0;entryDy=0;" parent="1" edge="1">
          <mxGeometry width="50" height="50" relative="1" as="geometry">
            <mxPoint x="99.9" y="240" as="sourcePoint" />
            <mxPoint x="99.9" y="216" as="targetPoint" />
          </mxGeometry>
        </mxCell>
        <mxCell id="oQiGW552PC2_yi8YqRPW-56" value="" style="endArrow=classic;html=1;rounded=0;exitX=0.5;exitY=0;exitDx=0;exitDy=0;" parent="1" source="oQiGW552PC2_yi8YqRPW-8" edge="1">
          <mxGeometry width="50" height="50" relative="1" as="geometry">
            <mxPoint x="681.06" y="145.6" as="sourcePoint" />
            <mxPoint x="380.0000000000005" y="169.99999999999986" as="targetPoint" />
            <Array as="points">
              <mxPoint x="660" y="130" />
              <mxPoint x="380" y="130" />
            </Array>
          </mxGeometry>
        </mxCell>
        <mxCell id="oQiGW552PC2_yi8YqRPW-57" value="+" style="ellipse;whiteSpace=wrap;html=1;aspect=fixed;" parent="1" vertex="1">
          <mxGeometry x="360" y="168" width="40" height="40" as="geometry" />
        </mxCell>
        <mxCell id="oQiGW552PC2_yi8YqRPW-59" style="edgeStyle=none;html=1;labelBackgroundColor=none;startFill=0;startSize=8;endFill=1;endSize=8;fontFamily=Verdana;fontSize=12;entryX=0;entryY=0.5;entryDx=0;entryDy=0;" parent="1" source="oQiGW552PC2_yi8YqRPW-57" target="oQiGW552PC2_yi8YqRPW-7" edge="1">
          <mxGeometry relative="1" as="geometry">
            <mxPoint x="400" y="187.8" as="sourcePoint" />
            <mxPoint x="440" y="187.8" as="targetPoint" />
          </mxGeometry>
        </mxCell>
      </root>
    </mxGraphModel>
  </diagram>
</mxfile>
